<svg xmlns="http://www.w3.org/2000/svg" viewBox="8 3 373 112" role="img" aria-label="ZotFlow wordmark"><title>ZotFlow wordmark</title><g fill="#216A63" fill-rule="evenodd"><path d="M131.60,56.56 134.99,55.82 130.51,76.00 130.04,78.59 129.85,80.08 129.73,81.62 129.71,83.84 129.89,85.95 130.27,87.96 130.65,89.24 131.13,90.47 131.72,91.63 132.20,92.40 132.99,93.45 133.70,94.22 134.39,94.84 135.22,95.46 136.00,95.95 137.16,96.53 138.13,96.89 139.38,97.22 140.24,97.37 141.51,97.48 142.59,97.48 143.88,97.38 145.82,97.05 147.90,96.45 149.82,95.70 152.19,94.51 154.13,93.28 155.64,92.14 157.35,90.56 158.88,88.85 160.23,87.03 161.42,85.12 162.46,83.12 163.55,80.59 164.51,77.89 165.33,75.07 166.27,71.06 166.51,69.91 166.60,69.02 166.58,68.57 166.41,67.68 166.06,66.85 165.83,66.46 165.26,65.76 164.57,65.18 164.18,64.95 163.78,64.76 162.91,64.49 162.02,64.40 161.12,64.49 160.68,64.59 160.26,64.74 159.46,65.17 158.76,65.74 158.45,66.07 158.18,66.43 157.76,67.22 157.49,68.09 156.92,70.74 156.30,73.21 155.75,75.07 155.15,76.81 154.32,78.81 153.60,80.26 152.60,81.90 151.73,83.07 150.52,84.37 149.17,85.52 147.63,86.52 146.08,87.29 144.50,87.88 143.80,88.07 142.86,88.24 142.08,88.29 141.46,88.25 140.85,88.10 140.43,87.88 139.99,87.48 139.63,86.93 139.28,86.04 139.07,85.13 138.93,83.99 138.90,83.11 138.95,81.60 139.07,80.48 139.50,77.96 144.81,54.05 151.81,53.11 159.40,52.33 167.70,51.69 176.54,51.20 164.44,104.42 164.41,105.32 164.56,106.21 164.70,106.64 164.88,107.06 165.36,107.82 165.66,108.16 166.34,108.75 166.72,109.00 167.54,109.36 168.42,109.56 168.87,109.60 169.77,109.53 170.64,109.30 171.06,109.12 171.82,108.64 172.47,108.02 172.75,107.66 173.20,106.88 173.49,106.02 186.05,50.86 195.46,50.67 207.45,50.58 208.34,50.40 209.17,50.06 209.92,49.55 210.56,48.92 210.83,48.55 211.25,47.76 211.51,46.90 211.60,46.00 211.58,45.55 211.40,44.66 211.06,43.83 210.55,43.08 210.25,42.75 209.55,42.17 208.56,41.68 210.65,39.94 212.48,38.15 214.18,36.18 215.65,34.18 216.57,32.71 217.15,31.65 218.18,29.47 218.98,27.23 219.56,24.93 219.82,23.18 219.95,21.41 219.91,19.64 219.78,18.31 219.46,16.54 219.02,14.94 218.54,13.66 217.82,12.13 216.87,10.51 216.12,9.59 214.76,8.27 213.06,6.96 211.60,6.07 209.92,5.28 207.92,4.59 206.25,4.22 204.40,4.01 202.68,3.99 200.52,4.21 198.79,4.58 197.08,5.13 195.41,5.87 193.79,6.77 192.23,7.86 191.13,8.77 189.80,10.05 188.81,11.16 187.62,12.70 186.76,13.99 185.73,15.80 185.01,17.26 184.40,18.69 183.58,20.96 182.88,23.39 178.66,41.91 169.75,42.34 161.51,42.91 153.89,43.62 146.94,44.45 151.49,24.00 151.60,23.10 151.53,22.20 151.29,21.33 150.88,20.53 150.32,19.82 149.64,19.23 148.85,18.79 148.00,18.51 147.10,18.40 146.20,18.47 145.33,18.71 144.53,19.12 144.16,19.38 143.82,19.68 143.23,20.36 142.99,20.74 142.63,21.57 137.18,46.01 132.77,46.89 129.52,47.65 129.10,47.81 128.32,48.26 127.96,48.54 127.47,49.06 127.08,47.90 126.62,46.76 125.95,45.39 125.39,44.44 124.67,43.39 123.97,42.51 123.31,41.81 122.59,41.20 121.17,40.28 120.03,39.64 118.52,38.91 117.32,38.42 115.75,37.87 114.52,37.52 112.89,37.14 111.15,36.85 109.31,36.66 106.96,36.59 104.61,36.69 102.27,36.96 99.95,37.40 97.66,38.01 95.41,38.78 93.23,39.71 91.18,40.76 89.64,41.68 88.08,42.75 86.65,43.85 84.91,45.39 83.63,46.70 82.44,48.09 81.38,49.52 80.50,50.84 79.62,52.28 78.03,55.32 76.63,58.52 75.45,61.86 74.49,65.29 73.78,68.77 73.33,72.26 73.17,75.46 71.60,78.10 70.26,80.07 68.94,81.71 67.62,83.03 66.29,84.07 65.46,84.59 64.59,85.03 62.99,85.64 61.14,86.07 59.44,86.30 57.52,86.40 34.06,86.40 33.16,86.35 70.11,52.39 71.50,50.88 72.60,49.35 73.06,48.55 73.45,47.70 73.89,46.24 74.05,45.16 74.06,44.39 73.92,43.25 73.72,42.50 73.41,41.73 73.04,41.05 72.58,40.41 72.06,39.84 71.51,39.34 70.36,38.58 69.01,38.00 67.67,37.64 65.82,37.42 38.76,37.41 34.76,37.54 31.48,37.85 29.39,38.16 27.40,38.56 25.82,38.96 23.85,39.55 22.28,40.10 20.22,40.91 18.15,41.82 15.96,42.88 15.19,43.36 14.54,43.97 14.26,44.33 13.81,45.11 13.64,45.53 13.44,46.41 13.40,46.86 13.46,47.76 13.70,48.63 14.10,49.44 14.65,50.15 15.33,50.74 16.11,51.19 16.96,51.48 17.86,51.60 18.76,51.54 19.63,51.30 23.80,49.38 25.48,48.72 27.09,48.17 29.82,47.45 31.41,47.15 33.07,46.92 35.79,46.70 38.87,46.61 62.81,46.60 26.89,79.61 25.61,81.03 24.87,82.06 24.18,83.34 23.69,84.62 23.40,85.98 23.32,86.94 23.37,87.91 23.45,88.48 23.69,89.45 24.05,90.37 24.52,91.24 25.09,92.02 26.05,93.01 26.80,93.60 27.96,94.30 28.77,94.67 30.15,95.13 31.35,95.39 32.91,95.56 57.63,95.60 60.31,95.46 62.79,95.13 65.05,94.62 66.74,94.08 68.37,93.42 69.93,92.63 71.41,91.71 72.90,90.61 74.21,89.47 75.78,87.86 76.75,89.57 77.80,91.04 78.99,92.37 80.42,93.65 81.83,94.68 83.73,95.76 85.45,96.51 87.54,97.18 89.37,97.59 91.60,97.89 93.49,97.98 95.90,97.90 98.34,97.61 100.69,97.13 102.60,96.59 104.94,95.76 107.33,94.68 109.17,93.70 111.38,92.30 113.12,91.03 114.73,89.68 116.63,87.87 118.18,86.13 119.67,84.22 120.65,82.81 121.61,81.29 122.51,79.72 123.38,78.05 124.17,76.40 125.10,74.20 126.35,70.69 127.02,68.40 127.45,66.63 128.11,63.09 128.35,61.26 128.49,59.50 128.56,57.75 128.54,55.89 129.38,56.31 130.25,56.54 130.70,56.59 131.60,56.56ZM196.43,41.46 188.16,41.61 191.81,25.61 192.35,23.75 192.95,22.07 193.39,21.05 194.10,19.66 194.59,18.82 195.36,17.70 196.16,16.72 196.98,15.89 197.81,15.18 198.64,14.59 199.48,14.12 200.32,13.75 201.15,13.47 202.25,13.25 203.07,13.18 204.14,13.21 205.19,13.39 206.21,13.70 207.18,14.14 207.87,14.56 208.74,15.23 209.34,15.81 209.93,16.93 210.36,18.07 210.57,18.95 210.70,19.87 210.75,20.81 210.72,21.79 210.59,22.79 210.38,23.82 209.83,25.57 209.03,27.34 208.21,28.75 207.23,30.14 206.11,31.49 204.51,33.09 202.69,34.58 200.68,35.93 198.51,37.13 197.80,37.69 197.22,38.38 196.78,39.17 196.62,39.59 196.43,40.47 196.43,41.46ZM117.00,48.52 117.72,49.53 118.09,50.23 118.63,51.62 119.03,53.27 119.28,55.14 119.37,57.20 119.28,59.41 119.08,61.25 118.69,63.61 118.13,66.02 117.42,68.42 116.56,70.79 115.78,72.63 114.69,74.84 113.50,76.92 112.21,78.83 111.14,80.22 110.03,81.46 108.61,82.82 107.02,84.11 105.38,85.24 103.69,86.21 101.97,87.03 100.25,87.68 98.52,88.18 96.82,88.53 95.17,88.73 93.57,88.78 91.68,88.64 90.28,88.39 88.70,87.90 87.32,87.25 86.14,86.45 85.17,85.51 84.38,84.43 83.52,82.72 83.19,81.83 82.92,80.85 82.53,78.66 82.38,76.63 82.40,74.46 82.58,72.18 82.93,69.84 83.55,67.00 84.21,64.65 85.18,61.91 86.12,59.73 87.36,57.29 88.70,55.11 89.85,53.56 90.96,52.34 92.51,50.94 93.85,49.93 95.64,48.81 97.16,48.03 99.14,47.21 101.19,46.57 103.27,46.12 105.37,45.85 107.45,45.79 109.49,45.92 111.07,46.16 112.97,46.64 114.76,47.31 115.77,47.80 116.74,48.36 117.00,48.52ZM228.53,13.90 213.32,75.74 212.77,78.29 212.43,80.60 212.27,82.88 212.27,84.49 212.43,86.44 212.70,87.97 213.20,89.71 213.79,91.14 214.66,92.63 215.64,93.88 216.87,95.03 218.18,95.93 219.09,96.41 219.94,96.75 221.54,97.21 222.40,97.36 223.45,97.45 225.36,97.43 227.44,97.13 229.32,96.64 231.73,95.73 233.70,94.78 235.83,93.49 237.46,92.29 239.31,90.63 240.87,88.93 242.35,86.99 243.13,88.53 243.75,89.57 244.43,90.57 245.29,91.62 246.10,92.48 247.30,93.56 248.35,94.35 249.70,95.21 250.85,95.82 252.33,96.46 253.54,96.89 255.11,97.33 256.37,97.59 258.01,97.83 259.30,97.94 260.99,97.98 262.90,97.90 265.34,97.61 267.78,97.10 270.12,96.42 272.54,95.51 274.41,94.64 276.67,93.40 278.46,92.25 280.59,90.65 282.26,89.21 284.03,87.45 285.56,85.68 286.98,83.79 288.33,81.75 289.54,79.67 290.89,77.01 291.89,74.72 292.95,71.90 293.86,68.99 294.46,66.57 295.02,63.68 295.35,61.26 295.55,58.40 295.55,56.10 295.40,53.84 295.08,51.62 294.70,49.90 294.08,47.90 293.39,46.25 292.39,44.44 291.43,43.08 290.31,41.81 289.59,41.20 287.65,39.98 286.06,39.16 284.32,38.42 282.65,37.84 280.95,37.37 278.73,36.94 276.89,36.71 275.22,36.60 273.46,36.59 270.44,36.80 268.77,37.04 267.03,37.38 265.31,37.82 263.61,38.35 261.94,38.97 260.30,39.68 258.70,40.48 257.59,41.10 256.06,42.06 254.67,43.05 253.25,44.18 252.28,45.04 251.05,46.25 250.16,47.22 249.34,48.21 248.42,49.46 247.50,50.84 246.62,52.28 245.00,55.37 243.83,58.03 242.63,61.30 241.77,64.19 241.01,67.51 240.31,68.25 239.85,69.02 239.54,69.87 238.39,73.99 237.48,76.55 236.80,78.16 236.25,79.31 235.45,80.74 234.79,81.75 234.09,82.69 233.34,83.57 231.95,84.91 230.38,86.07 228.51,87.09 227.29,87.61 226.19,87.97 225.23,88.18 224.42,88.27 223.60,88.23 223.06,88.10 222.64,87.87 222.28,87.48 221.97,86.89 221.74,86.20 221.56,85.28 221.46,84.12 221.48,82.72 221.57,81.66 221.96,79.24 237.47,16.10 237.60,15.21 237.55,14.31 237.32,13.43 236.94,12.62 236.40,11.90 235.72,11.29 234.95,10.83 234.10,10.53 233.21,10.40 232.31,10.45 231.43,10.68 230.62,11.06 230.24,11.32 229.58,11.93 229.04,12.65 228.83,13.05 228.53,13.90ZM284.00,48.52 284.72,49.53 285.09,50.23 285.63,51.62 286.03,53.27 286.28,55.14 286.37,57.20 286.28,59.41 286.08,61.25 285.69,63.61 285.13,66.02 284.42,68.42 283.56,70.79 282.78,72.63 281.69,74.84 280.50,76.92 279.21,78.83 278.14,80.22 277.03,81.46 275.61,82.82 274.02,84.11 272.38,85.24 270.69,86.21 268.97,87.03 267.25,87.68 265.52,88.18 263.82,88.53 262.17,88.73 260.57,88.78 258.68,88.64 257.28,88.39 255.70,87.90 254.32,87.25 253.14,86.45 252.17,85.51 251.38,84.43 250.52,82.72 250.19,81.83 249.92,80.85 249.53,78.66 249.38,76.63 249.40,74.46 249.58,72.18 249.93,69.84 250.55,67.00 251.21,64.65 252.18,61.91 253.12,59.73 254.36,57.29 255.70,55.11 256.85,53.56 257.96,52.34 259.51,50.94 260.85,49.93 262.64,48.81 264.16,48.03 266.14,47.21 268.19,46.57 270.27,46.12 272.37,45.85 274.45,45.79 276.49,45.92 278.07,46.16 279.97,46.64 281.76,47.31 282.77,47.80 283.74,48.36 284.00,48.52ZM294.14,76.50 293.79,78.28 293.55,79.90 293.40,81.48 293.35,83.60 293.44,85.20 293.63,86.61 293.92,87.97 294.32,89.27 294.83,90.52 295.45,91.70 296.20,92.80 297.05,93.81 298.00,94.70 299.05,95.48 300.16,96.13 301.33,96.65 302.54,97.04 303.78,97.30 305.03,97.44 306.73,97.46 308.01,97.35 309.44,97.11 310.70,96.81 312.47,96.24 313.85,95.68 315.51,94.88 316.95,94.06 318.33,93.15 319.64,92.17 320.95,91.05 322.12,89.93 323.40,88.56 323.98,90.30 324.62,91.68 325.52,93.15 326.32,94.16 327.41,95.26 328.42,96.06 329.87,96.94 331.28,97.55 332.91,98.02 334.40,98.26 336.15,98.34 337.64,98.26 339.46,97.99 340.93,97.64 342.81,97.04 344.85,96.21 346.06,95.61 347.23,94.93 348.36,94.18 349.46,93.36 350.52,92.47 351.59,91.47 352.58,90.46 353.82,89.08 355.95,86.35 357.94,83.37 359.80,80.15 361.54,76.73 363.37,72.58 365.05,68.19 366.55,63.65 368.02,58.39 368.75,55.38 369.52,51.77 370.07,48.72 370.55,45.66 370.60,45.21 370.55,44.31 370.46,43.87 370.15,43.02 369.69,42.25 369.08,41.58 368.73,41.30 368.35,41.05 367.54,40.66 367.11,40.53 366.21,40.40 365.31,40.45 364.87,40.54 364.44,40.67 363.62,41.06 362.90,41.60 362.30,42.27 362.05,42.65 361.66,43.46 361.53,43.89 360.81,48.30 360.15,51.67 359.25,55.56 358.23,59.36 357.08,63.06 356.01,66.12 354.67,69.54 353.44,72.32 351.94,75.35 350.59,77.75 349.20,79.95 347.54,82.23 345.87,84.17 344.21,85.76 342.61,86.97 341.10,87.81 339.29,88.53 338.47,88.77 337.36,89.02 336.69,89.11 335.83,89.14 335.11,89.07 334.54,88.94 334.09,88.76 333.59,88.44 333.16,88.00 332.84,87.53 332.35,86.40 332.12,85.46 332.00,84.73 331.91,83.48 331.93,82.03 332.08,80.40 332.25,79.22 332.49,77.99 336.48,61.05 338.59,48.31 338.56,47.41 338.36,46.53 338.19,46.11 337.74,45.33 337.46,44.97 336.81,44.35 336.04,43.88 335.20,43.56 334.31,43.41 333.86,43.40 332.96,43.52 332.11,43.81 331.71,44.01 330.97,44.54 330.35,45.19 329.88,45.96 329.70,46.37 329.46,47.24 327.51,58.94 326.29,62.76 324.36,68.23 322.62,72.44 321.58,74.63 320.71,76.30 319.81,77.88 318.87,79.37 317.39,81.41 315.83,83.20 314.19,84.74 312.76,85.82 310.95,86.88 310.12,87.27 308.94,87.73 307.22,88.17 306.35,88.27 305.62,88.26 304.71,88.09 303.99,87.72 303.70,87.46 303.43,87.10 302.98,86.16 302.69,85.01 302.55,83.46 302.59,82.04 302.77,80.39 303.27,77.87 311.45,46.15 311.59,45.26 311.60,44.81 311.47,43.91 311.17,43.06 310.96,42.66 310.71,42.29 310.11,41.61 309.77,41.32 309.00,40.86 308.58,40.68 307.71,40.45 306.81,40.40 305.91,40.53 305.48,40.66 305.06,40.83 304.29,41.29 303.61,41.89 303.07,42.61 302.86,43.00 302.55,43.85 294.14,76.50Z"/></g></svg>
